#!OML:ASF E:/inclinewalkrobotboard/Project1/Captureday1/Session1/subject1.ASF
:FULLY-SPECIFIED
:DEGREES
138
root 0 0 0 45.00122547642042 -47.123704131458226 -18.503741704116653
lowerback -6.497092760317495 3.602293253427387 -0.482857229030777
upperback -13.439237600366408 4.309544173088701 -0.07903172600164154
thorax -11.036125115414942 2.111310661579804 0.6811199290486147
lowerneck -11.436226457637225 6.757195160285559 4.43542296254699
upperneck 18.188296297353837 7.225873096760937 7.277751344649767
head 7.639621725686409 4.224194533129301 2.160710812656779
rclavicle 9.117938271015677E-16 -1.8274082108264357E-15
rhumerus 7.94139506961363 -22.474954943183125 -48.49130333211082
rradius 27.91752215004093
rwrist 21.294408070721968
rhand 0.838915379374118 7.361973078053404
rfingers 7.125020000000029
rthumb 26.457085148732588 -19.689927417229384
lclavicle 1.4302007015213904E-15 -9.247694158306034E-16
lhumerus -10.52037886083166 3.918316540256019 51.30370723177634
lradius 35.595361229727324
lwrist -7.844172823488043
lhand -1.7686715319117052 23.33557249371839
lfingers 7.125019999999976
lthumb 23.5089555970563 50.51075310732026
rfemur 58.86825773633832 -81.86006873458076 -56.04880359613625
rtibia 40.21416912155288
rfoot -18.424001886364415 -17.966619312674798
rtoes 21.628977471123633
lfemur -44.75018300387224 8.22531932905044 -27.12647654421356
ltibia 44.05562770724977
lfoot -22.773792790723384 14.91389035426687
ltoes 10.881348267994685
139
root 0 0 0 45.032086714725786 -47.14517195474171 -18.51529424933569
lowerback -6.508502776731875 3.6035763906031444 -0.48255271768968117
upperback -13.448308770074458 4.31162132762651 -0.07875566615455964
thorax -11.039775087343985 2.1123604930617157 0.681910884648854
lowerneck -11.432083422661554 6.761470965811731 4.437983041906058
upperneck 18.18805031878162 7.230995450707914 7.281969021680931
head 7.638955519257214 4.2269533394451635 2.161939813715242
rclavicle 9.084521318293694E-16 -1.8259535550628822E-15
rhumerus 8.004659046870506 -22.475151642149505 -48.48370972182252
rradius 27.904726967690223
rwrist 21.32884476911496
rhand 0.8659647835779385 7.336180946109651
rfingers 7.125020000000029
rthumb 26.48269336113752 -19.711501825183532
lclavicle 1.4167366604584945E-15 -9.29335816485573E-16
lhumerus -10.489527317885381 3.9469544277455895 51.22830763491184
lradius 35.57905413917816
lwrist -7.8891165627533635
lhand -1.7585374193263643 23.342984565626473
lfingers 7.125019999999976
lthumb 23.521698167144145 50.51764085469285
rfemur 59.04423014811039 -82.05977810903998 -56.24516741715678
rtibia 40.21384652662762
rfoot -18.435928834158446 -17.990841196603494
rtoes 21.6530387616301
lfemur -44.81990832871279 8.250811898063521 -27.13609601766654
ltibia 44.07461774205384
lfoot -22.802916308960715 14.949442125829114
ltoes 10.915413856486976
140
root 0 0 0 45.02064584731069 -47.13690891918415 -18.51155412650162
lowerback -6.504107538389539 3.603567499506555 -0.4820545070350423
upperback -13.443859348945194 4.31150126518992 -0.07910586586474144
thorax -11.037424307314925 2.112176478670266 0.6809613353602775
lowerneck -11.434602110071957 6.759466847914404 4.4371649412558485
upperneck 18.189274605023318 7.228585489614714 7.2796265759670025
head 7.639728847273692 4.225667447816361 2.1612527338837615
rclavicle 9.097301518888455E-16 -1.8261001165060086E-15
rhumerus 7.986841481284086 -22.47579799734714 -48.48525525634298
rradius 27.90844549883959
rwrist 21.32055507931075
rhand 0.8579124828116331 7.343544734406336
rfingers 7.125020000000029
rthumb 26.475347637025408 -19.705226019547982
lclavicle 1.4224887841064409E-15 -9.287941274373304E-16
lhumerus -10.497538254769513 3.937947656799906 51.252153277941815
lradius 35.58521950017696
lwrist -7.875416691176356
lhand -1.760237992345484 23.340119805247134
lfingers 7.125019999999976
lthumb 23.519481793075748 50.51476373592221
rfemur 58.99217801650698 -81.9963566789532 -56.18245081457619
rtibia 40.213421998234175
rfoot -18.428716301885927 -17.98282159014304
rtoes 21.64121723692937
lfemur -44.79580850445355 8.241534412866102 -27.133425965919994
ltibia 44.067946505645196
lfoot -22.790523260097196 14.936190948601212
ltoes 10.90196904899135
141
root 0 0 0 45.01239428639452 -47.12825247173204 -18.507956562053344
lowerback -6.502008351963415 3.6028667585169343 -0.48229970313522674
upperback -13.441693274044118 4.3105877199733 -0.07871585168119966
thorax -11.036203839824145 2.1117637426305462 0.681314134028107
lowerneck -11.435113726082086 6.757617943817745 4.435965901351482
upperneck 18.19036819588696 7.226351508924008 7.278327885813971
head 7.640231197960452 4.22446611404037 2.160842796509066
rclavicle 9.112147073778238E-16 -1.8269535609769305E-15
rhumerus 7.967699375330842 -22.4763901211784 -48.48352842110603
rradius 27.913184781787077
rwrist 21.308911565131194
rhand 0.8511488485751997 7.350564104520403
rfingers 7.125020000000029
rthumb 26.468807576751953 -19.69941067734454
lclavicle 1.4254053531835384E-15 -9.27681295917396E-16
lhumerus -10.50478554117502 3.931419942903228 51.269189382066024
lradius 35.58905501627466
lwrist -7.865199714613103
lhand -1.7627045785534534 23.338436327613806
lfingers 7.125019999999976
lthumb 23.516319525530122 50.513207648567146
rfemur 58.95840827529557 -81.95898743441806 -56.14546011657968
rtibia 40.21348177830312
rfoot -18.427088647461357 -17.978309447900404
rtoes 21.63704676746553
lfemur -44.78000105973352 8.235884842394334 -27.130678663041593
ltibia 44.06342411599136
lfoot -22.785241974215932 14.928465146141185
ltoes 10.895072729019255
142
root 0 0 0 45.00500772018708 -47.125160930389484 -18.505193176907714
lowerback -6.498784678738278 3.6025195996605164 -0.4826195956804581
upperback -13.439968519164346 4.309948367764779 -0.07894171980818676
thorax -11.036040744216935 2.111482040802958 0.6811371925851462
lowerneck -11.435925993010548 6.757279507217474 4.435607047321501
upperneck 18.189158033242435 7.225958883529035 7.277864165732897
head 7.6399004716538474 4.224248394850967 2.1607284334264754
rclavicle 9.11463439089262E-16 -1.8271835263624985E-15
rhumerus 7.95138669054557 -22.475357699579106 -48.48920391361324
rradius 27.915867281355535
rwrist 21.299897127823193
rhand 0.8431396557609894 7.3579395279679005
rfingers 7.125020000000029
rthumb 26.461120248126775 -19.693279594235502
lclavicle 1.4281991295049154E-15 -9.258679709751494E-16
lhumerus -10.514887744586247 3.9234184137775343 51.29081150573885
lradius 35.592618765951784
lwrist -7.852233117234335
lhand -1.7669190962262569 23.33672799994402
lfingers 7.125019999999976
lthumb 23.511251524250085 50.51183157774208
rfemur 58.89953606895877 -81.89429407775384 -56.08215828424967
rtibia 40.21393896245656
rfoot -18.424991788730292 -17.97066920104515
rtoes 21.63174083007484
lfemur -44.7601743399322 8.228870180667817 -27.127861161137115
ltibia 44.058229513982724
lfoot -22.77766688634609 14.91877387781592
ltoes 10.885951804483103
143
root 0 0 0 45.03310875925741 -47.14311952939069 -18.515477132475674
lowerback -6.509690109451404 3.6035523897548294 -0.48237132516224984
upperback -13.448247007956589 4.3117271973215345 -0.07848426408649178
thorax -11.03910591273585 2.112395361489571 0.6820917076102557
lowerneck -11.431946270768835 6.7607550460948955 4.437685746025046
upperneck 18.18962758240909 7.230109641120631 7.2815132785591
head 7.639534360903155 4.226488416411971 2.1617765532214333
rclavicle 9.082751298804658E-16 -1.8258273904089905E-15
rhumerus 8.011155974218635 -22.475435378242473 -48.48214736621523
rradius 27.90373989059812
rwrist 21.332345796448497
rhand 0.8687409762114644 7.333552040318147
rfingers 7.125020000000029
rthumb 26.48534412598697 -19.71368518839864
lclavicle 1.414954874340528E-15 -9.302056527129277E-16
lhumerus -10.485215695221346 3.9512622934330057 51.21767127206836
lradius 35.57657288608347
lwrist -7.895865474659266
lhand -1.7573336207794696 23.343990904874865
lfingers 7.125019999999976
lthumb 23.523362509882382 50.51862823075971
rfemur 59.06548676125547 -82.08299629982453 -56.26777844924217
rtibia 40.2137078738112
rfoot -18.436513077843284 -17.993596921361526
rtoes 21.654878227571032
lfemur -44.82620848175068 8.2530338436682 -27.137003910269243
ltibia 44.07626730402374
lfoot -22.805318695573213 14.952512628896798
ltoes 10.9182750820693
